<?xml version="1.0" encoding="utf-8"?>
<!-- Generator: Adobe Illustrator 25.2.1, SVG Export Plug-In . SVG Version: 6.00 Build 0)  -->
<svg version="1.1" id="Layer_1" xmlns="http://www.w3.org/2000/svg" xmlns:xlink="http://www.w3.org/1999/xlink" x="0px" y="0px"
	 viewBox="330 360 320 380" style="enable-background:new 330 360 320 380;" xml:space="preserve">
<style type="text/css">
	.st0{fill:#FFFFFF;stroke:#231F20;stroke-miterlimit:10;}
	.st1{fill:#1C1E26;}
	.st2{fill:#DAE8D9;}
	.st3{fill:#FFFFFF;}
	.st4{fill:#F3A533;}
	.st5{fill:#231F20;}
	.st6{fill:#B86B5E;}
	.st7{fill:#FEDB6F;}
	.st8{fill:#DA2700;}
	.st9{fill:#DC8730;}
	.st10{fill:#FCC5A8;}
</style>
<g>
	<path class="st3" d="M406.94,541.46c0,0,12.43-6.37,12.59-25.22c0.16-18.84-15.96-18.81-22.07-8.51s-2.59,27.18-2.59,27.18
		L406.94,541.46z"/>
	<path class="st4" d="M407.9,687.64c0,0-0.49,6.9-6.29,6.8c-5.8-0.1-5.5-4.92-5.5-4.92s-6.51,6.23-13.66-9.12
		c-7.16-15.36-8.3-46.14,3.11-69.99C396.97,586.56,407.9,687.64,407.9,687.64z"/>
	<g>
		<path class="st5" d="M408.01,687.64c-0.17,1.58-0.62,3.11-1.51,4.42c-0.85,1.33-2.3,2.3-3.89,2.53c-0.8,0.08-1.59,0.09-2.39-0.03
			c-0.8-0.08-1.58-0.37-2.3-0.79c-1.45-0.88-2.28-2.56-2.3-4.29l0.82,0.38c-0.81,0.73-1.73,1.17-2.77,1.39
			c-1.03,0.23-2.11,0.08-3.1-0.22c-1.97-0.69-3.53-2.06-4.83-3.52c-2.5-3.04-4.21-6.51-5.59-10.11c-1.31-3.62-2.13-7.36-2.73-11.11
			c-0.21-1.89-0.51-3.77-0.61-5.67l-0.2-2.84l-0.07-2.84c-0.12-7.57,0.46-15.12,1.71-22.57c1.3-7.43,3.24-14.81,6.3-21.79
			c0.35-0.87,0.83-1.77,1.39-2.63l0.48-0.63c0.17-0.21,0.39-0.4,0.59-0.6c0.2-0.2,0.49-0.35,0.73-0.52c0.29-0.13,0.6-0.27,0.94-0.32
			c0.7-0.13,1.41,0.06,1.95,0.36c0.55,0.3,0.96,0.68,1.34,1.07c0.72,0.79,1.26,1.64,1.74,2.51c1.83,3.48,2.96,7.12,4.05,10.76
			c2.09,7.3,3.61,14.71,4.87,22.15C405.35,657.61,406.29,672.67,408.01,687.64z M407.79,687.65c-0.81-7.46-2.06-14.91-3.36-22.31
			l-4.02-22.19c-1.42-7.37-2.83-14.74-4.74-21.96c-0.99-3.58-2.06-7.19-3.69-10.41c-0.43-0.78-0.87-1.55-1.4-2.16
			c-0.53-0.63-1.13-0.98-1.58-0.91c-0.49,0.03-1.12,0.61-1.61,1.28c-0.49,0.71-0.93,1.46-1.31,2.32
			c-3.29,6.68-5.66,13.85-7.04,21.22c-1.43,7.36-1.89,14.92-1.31,22.39l0.21,2.8l0.34,2.78c0.18,1.86,0.58,3.69,0.87,5.52
			c0.77,3.64,1.62,7.26,2.89,10.73c1.3,3.42,2.89,6.82,5.04,9.71c1.12,1.39,2.4,2.68,3.97,3.34c0.78,0.28,1.62,0.48,2.45,0.34
			c0.82-0.1,1.67-0.46,2.29-0.95l0.03-0.02c0.21-0.17,0.51-0.13,0.68,0.08c0.08,0.1,0.11,0.21,0.11,0.33
			c-0.07,1.35,0.51,2.86,1.7,3.67c1.17,0.82,2.78,1.09,4.26,0.96c1.48-0.17,2.9-0.98,3.73-2.27
			C407.14,690.67,407.62,689.13,407.79,687.65z"/>
	</g>
	<path class="st4" d="M411.64,679.9c0,0-12.26,22.06,4.35,43.31c0,0,0.18,6.09-3.25,6.62c-4.37,0.68-5.18,6.41-1.43,9.96
		c6.31,5.98,32.14,1.19,32.85-3.27c0.71-4.46-3.92-13.83-3.92-13.83s9.3-4.82,11.8-9.64C454.54,708.24,411.64,679.9,411.64,679.9z"
		/>
	<g>
		<path class="st5" d="M411.67,680.01c-0.02,0.12-0.02,0.15-0.08,0.27l-0.14,0.33c-0.09,0.22-0.19,0.44-0.27,0.66
			c-0.17,0.45-0.35,0.89-0.5,1.34c-0.33,0.89-0.61,1.8-0.87,2.72c-0.27,0.91-0.46,1.84-0.69,2.76l-0.53,2.79
			c-0.63,3.73-0.67,7.53-0.25,11.25c0.42,3.72,1.29,7.39,2.8,10.81c0.65,1.76,1.61,3.37,2.49,5.01c0.4,0.85,1.01,1.57,1.51,2.36
			l1.58,2.33l0.06,0.09c0.09,0.14,0.14,0.29,0.13,0.45c-0.02,1.6-0.26,3.11-0.88,4.63c-0.33,0.74-0.8,1.5-1.54,2.05
			c-0.17,0.15-0.38,0.25-0.59,0.35c-0.2,0.12-0.42,0.18-0.65,0.23c-0.51,0.12-0.7,0.16-1.04,0.23c-0.59,0.19-1.13,0.49-1.58,0.92
			c-0.43,0.45-0.74,1.01-0.95,1.63c-0.19,0.62-0.24,1.29-0.2,1.96c0.09,0.66,0.2,1.34,0.5,1.97c0.53,1.26,1.46,2.39,2.61,3.12
			c1.18,0.74,2.57,1.17,3.97,1.46c2.82,0.56,5.75,0.57,8.63,0.4c2.89-0.16,5.76-0.65,8.58-1.29c2.79-0.68,5.62-1.52,8.01-2.9
			c0.56-0.36,1.12-0.77,1.4-1.18c0.06-0.1,0.14-0.2,0.14-0.27c0.01-0.04,0.03-0.06,0.04-0.12l0.01-0.24
			c0.03-0.31,0.04-0.63,0.01-0.97c-0.08-1.33-0.42-2.72-0.83-4.07c-0.84-2.7-1.97-5.39-3.22-7.94c-0.25-0.5-0.05-1.11,0.43-1.38
			l0.02-0.01c2.42-1.33,4.8-2.87,6.95-4.59c1.08-0.86,2.09-1.79,2.95-2.79c0.23-0.24,0.42-0.5,0.61-0.76
			c0.21-0.25,0.37-0.52,0.52-0.78l0.12-0.2c0.03-0.05,0.11-0.18,0.07-0.12c-0.02,0.06-0.01,0.07-0.02,0.03
			c0.01-0.08-0.09-0.34-0.21-0.57c-0.55-1.01-1.51-2.07-2.45-3.05c-0.96-0.99-1.98-1.96-3.02-2.9c-2.09-1.88-4.29-3.67-6.48-5.47
			c-4.39-3.59-8.97-6.97-13.5-10.41l-6.86-5.09l-3.43-2.54l-1.72-1.26l-0.86-0.64l-0.43-0.32
			C411.9,680.21,411.66,680.09,411.67,680.01z M411.62,679.8c0.31,0.11,0.36,0.2,0.55,0.29l0.46,0.28l0.92,0.55l1.82,1.12l3.62,2.27
			c2.41,1.53,4.78,3.11,7.16,4.69c4.76,3.15,9.39,6.49,13.97,9.92c2.29,1.72,4.52,3.52,6.7,5.41c1.09,0.95,2.16,1.93,3.19,2.97
			c1.02,1.08,2.03,2.12,2.85,3.62c0.19,0.4,0.4,0.81,0.46,1.44c0.03,0.31,0.01,0.68-0.15,1.07c-0.09,0.24-0.12,0.24-0.18,0.35
			l-0.16,0.26c-0.2,0.35-0.42,0.69-0.66,0.99c-0.24,0.31-0.47,0.63-0.73,0.9c-1.02,1.14-2.14,2.12-3.31,3.01
			c-2.34,1.79-4.79,3.31-7.39,4.67l0.46-1.39c1.26,2.71,2.36,5.45,3.14,8.35c0.38,1.45,0.71,2.93,0.75,4.52
			c0.02,0.39,0,0.8-0.05,1.21l-0.03,0.31c-0.02,0.12-0.08,0.27-0.12,0.4c-0.08,0.3-0.23,0.48-0.38,0.69
			c-0.6,0.76-1.29,1.16-1.97,1.55c-2.76,1.41-5.65,2.06-8.54,2.64c-2.9,0.54-5.83,0.84-8.76,1c-2.94,0.14-5.89,0.03-8.81-0.51
			c-1.45-0.28-2.9-0.72-4.22-1.49c-1.34-0.79-2.38-1.99-3.04-3.38c-0.37-0.69-0.55-1.45-0.69-2.23c-0.09-0.78-0.07-1.59,0.12-2.38
			c0.21-0.78,0.58-1.54,1.12-2.18c0.57-0.63,1.3-1.09,2.09-1.38c0.92-0.25,1.36-0.31,1.78-0.68c0.42-0.35,0.74-0.88,0.96-1.48
			c0.44-1.2,0.57-2.65,0.54-3.96l0.19,0.54l-1.72-2.38c-0.56-0.8-1.18-1.56-1.61-2.45l-1.42-2.58c-0.25-0.42-0.47-0.86-0.63-1.33
			l-0.55-1.37l-0.55-1.37l-0.27-0.68l-0.2-0.71l-0.8-2.83c-0.25-0.95-0.35-1.93-0.53-2.89c-0.08-0.48-0.17-0.96-0.23-1.45
			l-0.11-1.46c-0.32-3.9,0-7.83,0.82-11.62c0.22-0.94,0.46-1.89,0.71-2.82c0.31-0.92,0.58-1.85,0.93-2.75c0.34-0.9,0.7-1.8,1.1-2.68
			c0.18-0.45,0.42-0.87,0.63-1.3c0.11-0.22,0.22-0.43,0.34-0.64l0.18-0.32C411.41,680.06,411.53,679.89,411.62,679.8z"/>
	</g>
	<path class="st6" d="M503.44,679.9c0,0,17.26,14.22,18.34-5.6c1.07-19.82-7.35-48.72,19.06-46.38
		c21.81,1.93,19.23,33.26,19.23,33.26s-4-28.07-20.62-25.17c-20.57,3.59,15.96,89.53-40.82,60.51
		C498.63,696.52,493.18,684.78,503.44,679.9z"/>
	<g>
		<path class="st5" d="M503.45,679.79c1.18,0.84,2.23,1.51,3.42,2.17c1.16,0.65,2.36,1.22,3.6,1.65c1.24,0.44,2.52,0.74,3.79,0.76
			c1.27,0.02,2.5-0.29,3.49-0.99c0.99-0.7,1.69-1.76,2.17-2.92c0.48-1.17,0.75-2.44,0.93-3.72c0.31-2.57,0.26-5.25,0.2-7.9
			c-0.11-5.32-0.54-10.66-0.65-16.05c-0.08-5.36-0.03-10.92,1.95-16.21c1.01-2.6,2.68-5.11,5.06-6.76c2.37-1.66,5.19-2.43,7.94-2.65
			c1.38-0.11,2.76-0.11,4.12-0.02c1.36,0.09,2.73,0.25,4.07,0.57c2.69,0.61,5.25,1.83,7.38,3.57c2.14,1.73,3.84,3.93,5.13,6.32
			c1.31,2.38,2.23,4.95,2.9,7.56c1.36,5.23,1.79,10.64,1.56,16.05c-0.01,0.24-0.21,0.43-0.45,0.42c-0.21-0.01-0.37-0.16-0.41-0.36
			l-0.01-0.03c-1-5.4-2.66-10.78-5.32-15.54c-1.34-2.36-2.98-4.57-5.03-6.24c-2.03-1.69-4.53-2.71-7.11-2.73
			c-1.27-0.01-2.66,0.13-3.71,0.56c-1.08,0.46-1.96,1.29-2.61,2.35c-1.3,2.14-1.81,4.87-2.11,7.54c-0.55,5.42-0.3,10.98-0.12,16.53
			c0.18,5.56,0.39,11.16,0.1,16.79c-0.16,2.81-0.43,5.64-0.99,8.45c-0.57,2.8-1.42,5.62-2.99,8.16c-0.79,1.26-1.75,2.44-2.93,3.41
			c-1.17,0.96-2.53,1.71-3.96,2.17c-2.88,0.94-5.89,0.84-8.7,0.37c-2.83-0.48-5.55-1.36-8.16-2.41c-2.62-1.05-5.14-2.28-7.61-3.6
			l-0.03-0.02c-0.11-0.06-0.19-0.15-0.24-0.26c-0.65-1.58-1.04-3.17-1.25-4.83c-0.19-1.65-0.14-3.34,0.25-4.96
			c0.38-1.62,1.18-3.15,2.29-4.38c0.56-0.61,1.18-1.16,1.86-1.61C501.91,680.52,502.66,680.13,503.45,679.79z M503.43,680.01
			c-1.3,0.72-2.68,1.71-3.65,2.92c-0.99,1.22-1.66,2.68-1.94,4.21c-0.29,1.53-0.26,3.12,0,4.66c0.25,1.54,0.7,3.09,1.33,4.47
			L498.9,696c4.97,2.41,10.16,4.51,15.5,5.34c2.66,0.38,5.39,0.38,7.81-0.48c2.44-0.83,4.4-2.6,5.7-4.84
			c1.31-2.25,2.08-4.85,2.59-7.49c0.51-2.66,0.74-5.39,0.87-8.13c0.25-5.49,0.06-11.04-0.09-16.61c-0.1-5.57-0.3-11.17,0.35-16.84
			c0.37-2.81,0.88-5.73,2.51-8.37c0.81-1.3,2.06-2.47,3.57-3.06c0.74-0.3,1.56-0.45,2.27-0.53c0.74-0.08,1.48-0.13,2.23-0.09
			c3,0.09,5.92,1.37,8.12,3.3c2.22,1.93,3.86,4.34,5.18,6.85c1.32,2.52,2.32,5.17,3.14,7.86c0.8,2.7,1.44,5.42,1.85,8.22l-0.87,0.03
			c0.35-5.27-0.07-10.66-1.33-15.81c-0.67-2.57-1.6-5.07-2.89-7.38c-1.3-2.29-2.99-4.37-5.07-5.95c-2.08-1.57-4.52-2.62-7.07-3.1
			c-1.27-0.25-2.57-0.35-3.89-0.4c-1.31-0.04-2.62,0-3.9,0.15c-2.56,0.29-5.06,1.1-7.04,2.6c-2,1.48-3.41,3.63-4.29,6.02
			c-0.9,2.38-1.35,4.97-1.6,7.57c-0.26,2.61-0.32,5.26-0.31,7.91c0.04,5.32,0.4,10.66,0.43,16.05c-0.03,2.7-0.06,5.39-0.48,8.13
			c-0.23,1.36-0.57,2.72-1.15,4.01c-0.58,1.28-1.44,2.52-2.69,3.34c-1.23,0.83-2.75,1.1-4.15,1c-1.41-0.1-2.75-0.5-4.01-1.02
			C507.72,683.23,505.37,681.7,503.43,680.01z"/>
	</g>
	<path class="st4" d="M501.97,664.14c-15.05-12.93-23-24.48-23-24.48l-32.35-45.2l-55.8,8.88
		c-13.97,82.41,44.42,106.56,44.42,106.56s8.23,4.04,15.24,5.21c0,0,0.58,7.01,2.92,11.29c0,0-12.46,2.14-8.57,13.04
		c3.89,10.9,42,6.62,42,6.62s2.97-13.82-2.48-24.53c0,0,1.52-0.8,3.79-2.24c10.93-6.92,19.07-17.73,22.06-30.32
		C512.04,681.27,511.8,672.59,501.97,664.14z"/>
	<g>
		<path class="st5" d="M501.9,664.22c-5.65-4.84-11.02-10.02-15.98-15.58c-2.47-2.79-4.91-5.6-7.13-8.62l-6.62-8.98l-13.25-17.96
			l-13.1-18.06l0.95,0.4l-13.96,2.19l-13.96,2.16l-27.95,4.13l0.48-0.47c-2.08,11.47-2.84,23.2-1.93,34.83
			c1.11,11.59,3.88,23.12,9.13,33.53c5.14,10.43,12.47,19.76,21.38,27.15c4.45,3.69,9.27,7,14.43,9.51
			c2.63,1.23,5.27,2.38,7.99,3.35c2.71,0.98,5.48,1.8,8.26,2.28c0.47,0.08,0.82,0.47,0.86,0.93l0,0.01
			c0.09,0.92,0.23,1.89,0.38,2.82c0.16,0.94,0.35,1.88,0.57,2.8c0.45,1.84,1.03,3.65,1.88,5.24c0.29,0.53,0.09,1.19-0.44,1.48
			c-0.09,0.05-0.19,0.08-0.29,0.11l-0.04,0.01c-2.29,0.48-4.68,1.55-6.3,3.15c-0.86,0.78-1.39,1.78-1.74,2.82l-0.2,0.8
			c-0.07,0.27-0.04,0.56-0.07,0.84c-0.08,0.56,0.02,1.14,0.09,1.71c0.02,0.58,0.28,1.15,0.41,1.72c0.08,0.29,0.15,0.59,0.28,0.8
			c0.13,0.22,0.18,0.48,0.37,0.68c0.56,0.89,1.48,1.61,2.5,2.2c2.05,1.21,4.53,1.86,7,2.37c4.98,0.97,10.17,1.2,15.32,1.2
			c5.16-0.02,10.35-0.28,15.47-0.8l-0.96,0.87c0.38-1.94,0.6-4.02,0.73-6.04c0.13-2.04,0.12-4.09-0.01-6.12
			c-0.12-2.04-0.46-4.05-0.91-6.02c-0.46-1.98-1.18-3.87-2.02-5.7c-0.21-0.45-0.03-0.98,0.39-1.22l3.76-2.17l1.83-1.18
			c0.6-0.4,1.18-0.84,1.78-1.25c2.33-1.72,4.53-3.63,6.54-5.72c4.03-4.18,7.37-9.07,9.67-14.43c1.16-2.68,2.05-5.47,2.7-8.32
			c0.62-2.85,0.85-5.8,0.44-8.69c-0.36-2.9-1.47-5.66-2.99-8.15C506.13,668.32,504.1,666.16,501.9,664.22z M502.04,664.06
			c2.23,1.92,4.31,4.08,5.89,6.59c1.58,2.5,2.73,5.31,3.14,8.26c0.46,2.95,0.22,5.95-0.31,8.86c-0.58,2.91-1.4,5.76-2.5,8.52
			c-2.19,5.52-5.45,10.61-9.44,15.03c-4,4.42-8.78,8.15-14.02,11.03l0.39-1.22c0.95,1.94,1.75,3.96,2.28,6.05
			c0.52,2.08,0.91,4.2,1.07,6.34c0.18,2.13,0.22,4.27,0.13,6.4c-0.09,2.14-0.32,4.23-0.73,6.39c-0.09,0.48-0.48,0.82-0.94,0.87
			l-0.02,0c-5.24,0.54-10.46,0.82-15.71,0.86c-5.25,0.01-10.52-0.2-15.77-1.2c-2.61-0.54-5.26-1.19-7.73-2.62
			c-1.22-0.7-2.43-1.61-3.28-2.94c-0.41-0.64-0.77-1.42-0.91-2.07c-0.16-0.69-0.44-1.34-0.47-2.07c-0.08-0.72-0.19-1.43-0.1-2.17
			c0.04-0.37,0.02-0.74,0.11-1.1l0.28-1.09c0.48-1.41,1.26-2.75,2.34-3.73c1.05-1.01,2.26-1.79,3.52-2.39
			c1.28-0.6,2.55-1.02,3.98-1.31l-0.77,1.59c-0.99-1.88-1.58-3.83-2.04-5.78c-0.23-0.98-0.42-1.96-0.58-2.95
			c-0.16-0.99-0.29-1.96-0.38-2.99l0.87,0.94c-2.98-0.53-5.83-1.41-8.61-2.44c-2.78-1.01-5.5-2.24-8.14-3.52
			c-5.33-2.68-10.18-6.12-14.67-9.95c-8.96-7.71-16.17-17.36-21.19-28c-1.27-2.65-2.36-5.39-3.37-8.14l-1.42-4.17l-1.18-4.24
			c-1.44-5.69-2.4-11.5-2.94-17.34c-1.03-11.7-0.3-23.49,1.46-35.09c0.04-0.25,0.23-0.43,0.46-0.47l0.02,0l27.85-4.75l13.94-2.28
			l13.95-2.25c0.38-0.06,0.74,0.11,0.95,0.4l12.87,18.23l12.72,18.33l6.36,9.16c2.12,3.02,4.44,5.94,6.88,8.74
			C491.14,653.95,496.45,659.17,502.04,664.06z"/>
	</g>
	<path class="st7" d="M390.83,603.33l23.29-3.7l14.71,18.28c0,0,3.52,38.3,26.01,44.86c22.49,6.55,6.4,37.81-10.27,40.45
		c-7.56,1.2-18.86-2.59-28.96-7.09C400.13,681.26,382.44,652.8,390.83,603.33z"/>
	<g>
		<path class="st5" d="M390.75,603.25l11.52-2.17c3.87-0.75,7.81-1.41,11.74-2.12c0.24-0.04,0.47,0.05,0.61,0.22l0.01,0.02
			c2.49,3.01,5.02,6,7.49,9.03l7.42,9.09c0.11,0.14,0.18,0.3,0.2,0.47l0,0.03c0.32,2.84,0.84,5.72,1.46,8.54
			c0.62,2.83,1.33,5.64,2.19,8.4c0.85,2.76,1.83,5.49,2.99,8.13c1.14,2.65,2.47,5.21,4.04,7.62c3.11,4.8,7.34,9.05,12.71,11.2
			l2.04,0.72c0.7,0.26,1.42,0.47,2.1,0.78c1.35,0.62,2.69,1.32,3.85,2.28c1.2,0.9,2.2,2.06,3.01,3.32l0.56,0.98
			c0.17,0.33,0.3,0.69,0.45,1.03c0.34,0.68,0.48,1.42,0.7,2.13c0.64,2.93,0.48,5.99-0.25,8.86c-0.72,2.88-1.88,5.64-3.37,8.21
			c-2.99,5.1-7.19,9.63-12.62,12.38c-1.38,0.62-2.8,1.22-4.31,1.5c-1.5,0.32-3.04,0.42-4.55,0.38c-3.03-0.05-5.98-0.58-8.87-1.27
			c-5.78-1.41-11.3-3.55-16.7-5.89c-0.12-0.05-0.22-0.12-0.3-0.2l-0.01-0.01c-3.04-2.94-5.9-6.06-8.51-9.39
			c-0.68-0.81-1.25-1.7-1.88-2.55c-0.6-0.87-1.26-1.7-1.81-2.61c-1.1-1.8-2.31-3.54-3.27-5.43c-4.08-7.41-7.07-15.4-8.87-23.64
			c-1.82-8.23-2.62-16.65-2.52-25.04l0.25-6.28c0.01-1.05,0.15-2.09,0.25-3.13l0.33-3.12l0.33-3.12c0.14-1.05,0.34-2.11,0.51-3.15
			L390.75,603.25z M390.9,603.41l-0.68,6.21c-0.11,1.02-0.24,2.02-0.33,3.05l-0.18,3.12l-0.18,3.11c-0.06,1.04-0.16,2.07-0.13,3.11
			l-0.02,6.23c0.26,8.29,1.15,16.56,3.13,24.58c1.98,8.01,4.93,15.77,8.95,22.96c3.95,7.22,9.06,13.78,14.91,19.57l-0.31-0.21
			c5.29,2.39,10.72,4.53,16.29,6.01c5.52,1.44,11.47,2.34,16.63-0.1c2.57-1.18,4.93-2.86,7.02-4.82c2.07-1.99,3.9-4.25,5.42-6.7
			c1.54-2.44,2.71-5.12,3.43-7.91c0.74-2.78,0.92-5.72,0.34-8.52c-0.63-2.79-2.21-5.34-4.5-7.05c-1.1-0.91-2.4-1.55-3.71-2.12
			c-1.33-0.5-2.72-0.92-4.15-1.41c-2.8-1.02-5.4-2.59-7.67-4.54c-2.28-1.94-4.25-4.21-5.96-6.64c-3.43-4.88-5.85-10.37-7.66-16
			c-1.79-5.65-2.99-11.43-3.62-17.36l0.2,0.49l-7.29-9.19c-2.44-3.06-4.81-6.17-7.22-9.25l0.63,0.24c-3.83,0.53-7.66,1.1-11.55,1.59
			L390.9,603.41z"/>
	</g>
	<g>
		<path class="st8" d="M408.74,592.34c0,0-5.63-14.87-21.26-24.54s-15.85,22.16-13.48,30.62c1.74,6.2,6.92,21.71,21.02,13.46
			C409.12,603.62,410.84,596.49,408.74,592.34z"/>
		<g>
			<path class="st5" d="M408.64,592.38c-2.11-5.06-5.45-9.51-9.19-13.41c-3.75-3.91-7.9-7.35-12.37-10.34
				c-1.1-0.67-2.22-1.38-3.43-1.67c-1.2-0.33-2.45-0.36-3.59,0.1c-1.14,0.44-2.12,1.33-2.91,2.38c-0.79,1.05-1.37,2.28-1.84,3.54
				c-1.83,5.1-2.05,10.69-1.78,16.08c0.16,2.7,0.48,5.42,1.06,8c0.66,2.53,1.59,5.13,2.7,7.51c1.14,2.38,2.58,4.63,4.48,6.26
				c1.88,1.65,4.25,2.46,6.7,2.18c1.22-0.11,2.44-0.45,3.63-0.92c1.19-0.5,2.32-1.11,3.5-1.81c2.34-1.35,4.62-2.78,6.76-4.41
				c1.07-0.81,2.09-1.7,3.03-2.65c0.5-0.46,0.89-1,1.35-1.49c0.39-0.54,0.82-1.07,1.14-1.65c0.73-1.13,1.19-2.42,1.38-3.75
				C409.43,594.98,409.23,593.61,408.64,592.38z M408.84,592.29c0.63,1.23,0.86,2.67,0.74,4.05c-0.11,1.39-0.55,2.75-1.18,4
				c-1.23,2.52-3.1,4.68-5.1,6.61c-2.02,1.94-4.24,3.65-6.6,5.12c-2.29,1.54-4.99,2.91-8,3.26c-3.02,0.37-6.28-0.73-8.44-2.79
				c-2.22-2.02-3.7-4.55-4.85-7.12c-1.14-2.61-1.98-5.22-2.55-8.02c-0.49-2.79-0.56-5.56-0.54-8.33c0.01-2.77,0.25-5.52,0.57-8.26
				c0.38-2.73,0.84-5.46,1.75-8.09c0.44-1.32,0.98-2.62,1.77-3.81c0.76-1.19,1.79-2.32,3.16-2.98c1.37-0.68,2.98-0.77,4.44-0.47
				c1.48,0.27,2.79,0.93,4.05,1.62c4.78,2.86,9.07,6.59,12.45,11c1.73,2.17,3.24,4.5,4.63,6.87
				C406.51,587.33,407.81,589.75,408.84,592.29z"/>
		</g>
		<g>
			<path class="st5" d="M390.58,589.64c1.64-0.18,3.32-0.15,4.98,0.02c1.66,0.18,3.31,0.52,4.93,1.04c1.62,0.5,3.18,1.23,4.64,2.14
				c1.5,0.87,2.79,2.05,4.03,3.28c0.43,0.43,0.43,1.13,0.01,1.56c-0.43,0.43-1.13,0.43-1.56,0.01c-0.03-0.03-0.05-0.06-0.08-0.09
				l-0.05-0.06c-0.98-1.2-2.01-2.4-3.29-3.34c-1.24-0.98-2.62-1.82-4.09-2.46c-1.47-0.66-3.02-1.17-4.62-1.52
				C393.87,589.86,392.23,589.65,390.58,589.64z"/>
		</g>
	</g>
	<path class="st9" d="M460.03,422.31c0,0-7.14-52.8-53.6-42.44c-46.46,10.36-65.04,93.72-18.78,124.18
		C433.91,534.51,466.79,459.13,460.03,422.31z"/>
	<path class="st10" d="M401.63,381.26c30.4,1.58,36.71,46.7,36.71,46.7c4.39,24.54-4.54,64.91-22.09,82.29
		c-8.68,2.11-18.3,0.58-28.59-6.2C343.02,474.66,358.74,396.07,401.63,381.26z"/>
	<g>
		<path class="st5" d="M459.93,422.33c-1.28-7.5-3.76-14.84-7.47-21.46c-3.71-6.6-8.78-12.55-15.25-16.38
			c-6.45-3.85-14.04-5.35-21.49-4.91c-7.47,0.44-14.9,2.31-21.42,5.99c-6.5,3.71-12.26,8.79-16.87,14.78
			c-1.11,1.53-2.31,3-3.29,4.63l-1.54,2.39l-1.39,2.48c-1.86,3.31-3.33,6.82-4.72,10.36c-2.65,7.13-4.24,14.63-4.87,22.2
			c-0.66,7.57-0.21,15.23,1.4,22.63c1.6,7.4,4.38,14.52,8.32,20.93c4.02,6.35,9.29,11.88,15.43,16.17c3.03,2.21,6.34,4,9.78,5.4
			c3.46,1.33,7.09,2.25,10.77,2.39c1.84,0.11,3.68,0.01,5.5-0.23c1.82-0.22,3.62-0.63,5.37-1.21c1.76-0.55,3.46-1.27,5.11-2.12
			c1.65-0.83,3.24-1.81,4.75-2.89c6.1-4.29,11.05-10.11,15.26-16.34c4.21-6.26,7.57-13.09,10.35-20.14
			c2.75-7.07,4.81-14.43,6.03-21.94C460.88,437.57,461.24,429.85,459.93,422.33z M460.14,422.29c0.69,3.76,0.94,7.59,0.93,11.42
			c-0.01,3.83-0.32,7.65-0.79,11.44c-0.97,7.6-2.78,15.09-5.28,22.35c-2.49,7.27-5.8,14.28-9.95,20.79
			c-4.15,6.5-9.33,12.48-15.7,17.04c-1.59,1.14-3.26,2.17-5.01,3.07c-1.74,0.91-3.56,1.68-5.44,2.28c-1.87,0.62-3.81,1.07-5.78,1.32
			c-1.96,0.27-3.95,0.34-5.92,0.21c-3.96-0.2-7.82-1.22-11.46-2.66c-3.61-1.51-7.04-3.42-10.16-5.73
			c-6.34-4.5-11.7-10.33-15.72-16.95c-3.98-6.66-6.57-14.05-8.01-21.6l-0.28-1.41l-0.2-1.43l-0.39-2.86
			c-0.2-1.91-0.32-3.83-0.44-5.74c-0.08-3.84-0.05-7.68,0.33-11.49c0.71-7.63,2.39-15.16,4.92-22.4c1.35-3.59,2.82-7.14,4.63-10.52
			l1.34-2.55l1.49-2.46c0.95-1.68,2.12-3.21,3.21-4.79c0.53-0.81,1.18-1.52,1.78-2.28c0.62-0.74,1.19-1.52,1.84-2.23l1.98-2.11
			c0.33-0.35,0.66-0.71,1-1.05l1.07-0.98l2.15-1.95l2.3-1.78l1.15-0.89c0.39-0.29,0.81-0.53,1.22-0.8l2.46-1.56
			c3.41-1.85,6.96-3.53,10.75-4.48c3.74-1.1,7.59-1.66,11.48-1.86c7.76-0.43,15.77,1.41,22.31,5.67
			c6.58,4.23,11.51,10.5,15.02,17.28c1.75,3.41,3.25,6.94,4.42,10.58C458.58,414.8,459.55,418.51,460.14,422.29z"/>
	</g>
	<g>
		<path class="st5" d="M387.16,437.57c0.58,2.79,1.12,5.54,1.73,8.26c0.33,1.35,0.62,2.71,1.01,4.04c0.37,1.33,0.74,2.66,1.22,3.93
			c0.91,2.56,2.04,5.06,3.79,6.99c0.88,0.95,1.92,1.74,3.16,2.18c1.23,0.47,2.62,0.55,4.05,0.45c-1.3,0.57-2.81,0.83-4.31,0.6
			c-1.5-0.24-2.94-0.98-4.08-1.99c-1.17-0.99-2.07-2.23-2.84-3.49c-0.74-1.29-1.32-2.64-1.83-4c-0.95-2.75-1.55-5.58-1.85-8.42
			C386.9,443.27,386.83,440.41,387.16,437.57z"/>
	</g>
	<path class="st4" d="M533.03,446.25c0,0-9.58-9.24-18.19-18.59c-10.09-10.96-9.97-37.81-9.97-37.81s-9.73,18.49-6.95,30.68
		c0,0-19.04-19.01-43.25-17.01c0,0,19.25,11.92,23.28,21.51c0,0-39.24-8.39-56.87,0.58c0,0,9.69-0.47,15.57,3.94
		c0,0-31.76,11.53-42.8,44.3c-11.04,32.77-4.42,55.19-6.31,57.62c-1.89,2.43-12.48,2.11-12.31,13.14
		c0.17,11.02,15.16,45.77,65.78,50.25c50.62,4.47,76.97-3.61,89.33-12.91c12.37-9.3,23.08-22.91,23.08-22.91
		s39.94,13.15,63.59-21.49c23.65-34.63,19.36-106.75-18.58-123.27C556.59,396.04,533.03,446.25,533.03,446.25z"/>
	<path class="st9" d="M519.77,574.94c-31.59,26.2-61.99,20.85-75.08,20.17c48.19,3.76,73.61-4.12,85.67-13.19
		c12.37-9.3,23.08-22.91,23.08-22.91s4.33-6.3,6.48-13.76c10.94-58.16-15.68-85.5-15.68-85.5
		C553.44,496.7,560.65,541.03,519.77,574.94z"/>
	<path class="st10" d="M580.92,432.22c18.3-17.25,35.93,3.34,47.58,23.85c6.72,27.44,2.51,60.99-11.47,81.46
		c-23.65,34.63-63.59,21.49-63.59,21.49s12.58-19.32,9.59-46.45C563.03,512.56,549.19,462.11,580.92,432.22z"/>
	<g>
		<path class="st5" d="M561.01,501.73c-1.59-8.88-2.04-18.02-1.09-27.07c0.48-4.52,1.27-9.03,2.53-13.42
			c0.54-2.22,1.39-4.35,2.15-6.51c0.37-1.08,0.9-2.1,1.35-3.16c0.49-1.03,0.87-2.12,1.46-3.11c1.12-2,2.16-4.05,3.5-5.91
			c0.65-0.94,1.25-1.92,1.94-2.84l2.17-2.67l1.09-1.33c0.39-0.42,0.8-0.82,1.2-1.23l2.41-2.44c0.39-0.42,0.82-0.8,1.27-1.17
			l1.33-1.12c0.96-0.66,1.87-1.39,2.91-1.93c0.99-0.62,2.08-1.07,3.15-1.54l1.68-0.54c0.56-0.18,1.15-0.25,1.72-0.37
			c2.32-0.39,4.7-0.29,6.96,0.25c2.25,0.55,4.38,1.49,6.31,2.69c1.95,1.19,3.73,2.6,5.38,4.14c-1.8-1.36-3.68-2.6-5.66-3.63
			c-1.97-1.04-4.09-1.78-6.25-2.15c-4.31-0.79-8.78,0.21-12.4,2.61c-0.94,0.53-1.77,1.26-2.65,1.9l-1.23,1.09
			c-0.41,0.36-0.82,0.72-1.19,1.14l-2.28,2.42c-0.38,0.41-0.77,0.8-1.13,1.21l-1.02,1.31l-2.06,2.6c-0.66,0.89-1.23,1.84-1.85,2.75
			c-1.29,1.8-2.27,3.8-3.35,5.73c-0.58,0.95-0.95,2-1.44,3c-0.44,1.02-0.97,2-1.33,3.05c-0.76,2.08-1.58,4.15-2.16,6.3
			c-1.35,4.24-2.17,8.64-2.83,13.05l-0.43,3.32l-0.28,3.34c-0.12,1.11-0.14,2.23-0.2,3.35c-0.06,1.12-0.11,2.24-0.11,3.36
			C560.45,492.73,560.67,497.23,561.01,501.73z"/>
	</g>
	<g>
		<path class="st5" d="M533.07,446.44c-0.07-0.02-0.17-0.06-0.24-0.12l-0.11-0.1l-0.19-0.18l-0.38-0.35l-0.75-0.71l-1.49-1.42
			l-2.97-2.85c-1.98-1.9-3.93-3.83-5.87-5.78c-1.94-1.95-3.86-3.91-5.75-5.9c-0.95-0.97-1.91-2.04-2.74-3.18
			c-0.8-1.16-1.55-2.35-2.18-3.6c-2.54-5-3.98-10.43-4.99-15.87c-0.96-5.47-1.5-10.96-1.62-16.54l2.03,0.51
			c-1.15,2.32-2.2,4.77-3.13,7.22c-0.93,2.46-1.76,4.96-2.41,7.48c-0.66,2.53-1.17,5.09-1.4,7.65c-0.24,2.56-0.17,5.12,0.38,7.52
			c0.17,0.74-0.29,1.48-1.03,1.64c-0.46,0.1-0.91-0.03-1.23-0.33l-0.04-0.04c-2.79-2.58-5.97-4.97-9.23-7.09
			c-3.29-2.1-6.73-3.97-10.32-5.45c-3.58-1.49-7.31-2.64-11.11-3.31c-3.79-0.7-7.67-0.86-11.49-0.57l0.7-2.92
			c2.33,1.46,4.54,2.97,6.74,4.55c2.19,1.58,4.34,3.24,6.42,4.99c2.08,1.75,4.1,3.6,5.98,5.63c1.85,2.06,3.66,4.24,4.88,7.03
			c0.37,0.85-0.02,1.85-0.87,2.23c-0.33,0.14-0.68,0.17-1.01,0.11l-0.05-0.01c-4.62-0.92-9.36-1.68-14.08-2.27
			c-4.73-0.59-9.47-1-14.22-1.19c-4.74-0.19-9.49-0.15-14.16,0.33c-4.65,0.52-9.3,1.42-13.37,3.39l-0.76-2.85
			c1.5-0.04,2.87,0.04,4.29,0.19c1.41,0.14,2.81,0.37,4.21,0.69c2.77,0.65,5.56,1.67,7.96,3.49c0.6,0.45,0.71,1.3,0.26,1.9
			c-0.16,0.21-0.37,0.36-0.59,0.45l-0.02,0.01c-3.3,1.25-6.61,2.93-9.75,4.75c-3.15,1.83-6.18,3.89-9.07,6.12
			c-5.75,4.49-10.93,9.75-15.14,15.72c-4.23,5.96-7.44,12.61-9.58,19.65c-2.21,7.02-3.88,14.22-4.78,21.53
			c-0.92,7.31-1.16,14.7-0.77,22.06l0.35,5.53c0.06,0.93,0.12,1.85,0.13,2.8c0.01,0.47,0,0.95-0.05,1.46
			c-0.02,0.25-0.06,0.51-0.15,0.8c-0.06,0.27-0.3,0.66-0.51,0.84c-0.87,0.79-1.78,1.06-2.64,1.43c-0.87,0.34-1.73,0.66-2.56,1.02
			c-1.65,0.71-3.2,1.63-4.36,2.91c-2.38,2.56-2.72,6.45-2.04,9.91c0.65,3.55,1.98,6.99,3.59,10.26c3.29,6.52,7.93,12.33,13.37,17.19
			c5.46,4.84,11.71,8.8,18.42,11.67c1.66,0.76,3.39,1.37,5.09,2.02c1.74,0.56,3.46,1.18,5.23,1.64c3.51,1.03,7.1,1.74,10.7,2.35
			c7.21,1.12,14.6,1.46,21.96,1.83c7.36,0.29,14.73,0.37,22.07,0.04c7.34-0.32,14.66-1.02,21.85-2.29c7.19-1.26,14.29-3.1,20.9-5.97
			c3.29-1.45,6.46-3.15,9.31-5.24c2.88-2.14,5.66-4.52,8.33-7c5.32-4.97,10.33-10.4,14.88-16.05c0.52-0.64,1.36-0.88,2.1-0.65
			l0.03,0.01c2.67,0.8,5.65,1.37,8.54,1.74c2.92,0.38,5.86,0.56,8.8,0.54c5.87-0.04,11.73-0.86,17.28-2.65
			c5.55-1.78,10.76-4.54,15.33-8.14c4.58-3.6,8.51-8.01,11.77-12.89c3.25-4.88,5.82-10.24,7.83-15.82
			c2.01-5.58,3.47-11.37,4.48-17.24c2.01-11.74,2.31-23.82,0.77-35.66c-1.57-11.8-4.96-23.51-11.19-33.6
			c-3.11-5.02-6.99-9.57-11.62-13.19c-4.62-3.61-10.1-6.09-15.82-7.61c-5.71-1.49-11.74-1.79-17.54-0.6
			c-5.8,1.16-11.3,3.71-16.22,7.09c-4.93,3.39-9.3,7.59-13.17,12.2c-1.94,2.31-3.74,4.73-5.44,7.22c-0.85,1.25-1.66,2.52-2.44,3.81
			c-0.39,0.65-0.77,1.3-1.14,1.96l-0.55,0.99l-0.27,0.5l-0.13,0.25l-0.07,0.14C533.21,446.31,533.13,446.39,533.07,446.44z
			 M533,446.07c-0.02-0.04-0.07-0.04-0.07-0.04l0.05-0.11l0.12-0.26l0.25-0.51l0.52-1.02c0.35-0.67,0.71-1.34,1.08-2.01
			c0.74-1.33,1.52-2.64,2.33-3.92c1.62-2.58,3.38-5.06,5.27-7.45c3.78-4.77,8.1-9.17,13.07-12.8c4.94-3.63,10.6-6.43,16.68-7.76
			c6.06-1.38,12.45-1.2,18.49,0.25c3.03,0.71,5.96,1.74,8.8,2.99c2.85,1.27,5.57,2.86,8.07,4.72c5.01,3.74,9.2,8.49,12.52,13.73
			c6.66,10.51,10.29,22.58,12.06,34.72c1.72,12.18,1.61,24.6-0.37,36.76c-1.01,6.08-2.49,12.09-4.56,17.92
			c-2.06,5.83-4.72,11.5-8.17,16.73c-3.43,5.22-7.65,9.97-12.62,13.86c-4.95,3.9-10.62,6.89-16.61,8.81
			c-5.99,1.92-12.27,2.82-18.51,2.8c-3.12,0-6.24-0.22-9.33-0.64c-3.11-0.44-6.1-1.01-9.23-1.97l2.14-0.64
			c-4.78,5.85-9.87,11.29-15.4,16.39c-2.77,2.54-5.64,4.96-8.71,7.22c-3.14,2.27-6.55,4.05-10.04,5.56
			c-7,2.98-14.36,4.81-21.74,6.06c-7.4,1.22-14.86,1.84-22.31,2.07c-7.45,0.25-14.9,0.08-22.33-0.31
			c-3.71-0.21-7.42-0.48-11.12-0.82c-3.69-0.31-7.44-0.79-11.12-1.42c-3.68-0.7-7.35-1.49-10.93-2.62c-1.81-0.5-3.56-1.17-5.33-1.78
			c-1.74-0.7-3.5-1.36-5.19-2.17c-6.84-3.07-13.21-7.23-18.74-12.3c-5.52-5.08-10.16-11.13-13.46-17.86
			c-1.64-3.37-2.99-6.91-3.65-10.65c-0.34-1.87-0.43-3.83-0.1-5.75c0.33-1.92,1.16-3.82,2.52-5.27c1.35-1.46,3.08-2.45,4.81-3.19
			c0.87-0.37,1.75-0.7,2.61-1.02c0.83-0.33,1.73-0.67,2.23-1.15c0.13-0.14,0.15-0.15,0.2-0.33c0.05-0.16,0.08-0.36,0.1-0.57
			c0.04-0.42,0.05-0.87,0.05-1.32c-0.01-0.9-0.06-1.82-0.11-2.74l-0.31-5.55c-0.38-7.42-0.21-14.88,0.7-22.27
			c0.91-7.38,2.44-14.69,4.61-21.81c1.07-3.55,2.35-7.1,3.92-10.49c1.57-3.4,3.42-6.67,5.53-9.77c4.21-6.21,9.42-11.72,15.24-16.45
			c2.93-2.35,5.99-4.53,9.21-6.47c3.23-1.95,6.5-3.71,10.1-5.15l-0.35,2.35c-1.98-1.44-4.44-2.32-6.96-2.86
			c-1.27-0.26-2.56-0.45-3.86-0.56c-1.29-0.11-2.64-0.15-3.87-0.1l-0.01,0c-0.83,0.04-1.54-0.61-1.57-1.44
			c-0.03-0.61,0.31-1.15,0.82-1.41c4.57-2.33,9.51-3.3,14.38-3.9c4.89-0.55,9.77-0.64,14.64-0.49c4.86,0.18,9.7,0.59,14.51,1.18
			c4.82,0.6,9.58,1.31,14.38,2.32l-1.93,2.32c-0.9-2.14-2.5-4.19-4.21-6.09c-1.73-1.9-3.65-3.68-5.64-5.39
			c-2-1.7-4.07-3.33-6.2-4.89c-2.12-1.55-4.31-3.07-6.51-4.47l-0.03-0.02c-0.73-0.47-0.95-1.44-0.48-2.18
			c0.28-0.44,0.74-0.69,1.22-0.73c4.12-0.29,8.27-0.08,12.3,0.7c4.04,0.74,7.96,1.99,11.72,3.58c3.76,1.58,7.33,3.56,10.74,5.77
			c3.41,2.24,6.6,4.67,9.6,7.57l-2.31,1.28c-0.59-2.82-0.59-5.65-0.28-8.39c0.29-2.75,0.88-5.42,1.62-8.03
			c0.73-2.62,1.63-5.17,2.63-7.68c1.01-2.51,2.1-4.95,3.37-7.38c0.28-0.53,0.93-0.73,1.45-0.46c0.37,0.19,0.58,0.57,0.58,0.95
			l0,0.01c0.01,5.39,0.45,10.86,1.29,16.22c0.88,5.34,2.11,10.69,4.42,15.55c0.56,1.22,1.25,2.37,1.97,3.49
			c0.76,1.11,1.6,2.1,2.54,3.12c1.84,2.03,3.69,4.04,5.57,6.04l5.67,5.96l2.86,2.95l1.44,1.47l0.72,0.73l0.36,0.37l0.18,0.18
			c0.02,0.02,0.08,0.08,0.07,0.07C533.04,446.01,533.01,446.03,533,446.07z"/>
	</g>
	<g>
		<path class="st3" d="M406.94,541.46c0,0,12.43-6.37,12.59-25.22c0.16-18.84-15.96-18.81-22.07-8.51s-2.59,27.18-2.59,27.18
			L406.94,541.46z"/>
		<g>
			<path class="st5" d="M406.94,541.38c1.51-1.04,2.97-2.37,4.2-3.78c1.26-1.4,2.4-2.93,3.3-4.58c1.91-3.24,3.13-6.84,3.79-10.54
				c0.12-0.93,0.27-1.86,0.42-2.79l0.24-2.82c0.13-1.88,0.09-3.78-0.18-5.65c-0.27-1.86-0.83-3.7-1.78-5.32
				c-0.94-1.62-2.35-2.99-4.03-3.79c-1.66-0.86-3.6-1.05-5.42-0.78c-1.83,0.27-3.57,1.02-5.07,2.08c-1.52,1.03-2.8,2.39-3.8,3.92
				c-0.51,0.75-0.89,1.61-1.31,2.43c-0.38,0.84-0.69,1.72-0.99,2.6c-1.07,3.57-1.49,7.34-1.56,11.12c-0.04,3.77,0.16,7.6,0.78,11.32
				l-0.33-0.44c1.95,1.1,3.86,2.28,5.82,3.44C402.97,538.94,404.94,540.15,406.94,541.38z M406.94,541.55
				c-2.02-0.95-4.07-1.92-6.14-2.94c-2.06-1.03-4.16-2.02-6.24-3.11c-0.17-0.09-0.29-0.25-0.33-0.43l0-0.01
				c-0.81-3.83-1.23-7.69-1.23-11.61c0-3.9,0.5-7.84,1.75-11.6c0.35-0.93,0.7-1.86,1.13-2.75c0.48-0.88,0.9-1.78,1.5-2.6
				c1.18-1.63,2.65-3.06,4.36-4.11c1.71-1.04,3.65-1.72,5.64-1.89c1.98-0.18,4.02,0.18,5.78,1.1c0.88,0.45,1.69,1.03,2.39,1.74
				c0.71,0.69,1.32,1.46,1.83,2.3c1.02,1.68,1.7,3.54,2.13,5.45c0.42,1.91,0.6,3.88,0.6,5.83c-0.02,0.97-0.01,1.95-0.07,2.93
				c-0.11,0.97-0.22,1.95-0.36,2.92c-0.66,3.87-2.06,7.63-4.22,10.92C413.3,536.93,410.5,539.78,406.94,541.55z"/>
		</g>
		<path class="st5" d="M400.35,513.23c-0.78-4.88,1.37-9.5,5.07-11.9c6.71-2.02,14.22,2.03,14.11,14.92
			c-0.01,1.29-0.09,2.51-0.21,3.69c-1.59,1.68-3.67,2.88-6.08,3.26C407.15,524.17,401.38,519.7,400.35,513.23z"/>
		<path class="st4" d="M409.02,545.03c0,0-2.12-8.76-18.48-10.89"/>
		<g>
			<path class="st5" d="M409.02,545.03c-0.9-1.67-2.18-3-3.54-4.17c-1.39-1.15-2.93-2.1-4.55-2.9c-1.6-0.86-3.33-1.46-5.05-2.12
				c-0.88-0.26-1.76-0.57-2.65-0.86c-0.9-0.26-1.8-0.52-2.7-0.85c0.95-0.03,1.9,0.01,2.85,0.06c0.94,0.11,1.89,0.25,2.83,0.41
				c0.93,0.23,1.86,0.45,2.78,0.76c0.91,0.33,1.81,0.67,2.67,1.12c1.72,0.88,3.37,1.99,4.69,3.45
				C407.67,541.37,408.77,543.11,409.02,545.03z"/>
		</g>
		<path class="st7" d="M456.92,550.81c-4.64-4.45-21.96-21.81-47.07-11.37c-10.73,4.46-2.25,23.95,7.32,25.24
			c0,0-1.52,23.58,15.7,20.84c17.23-2.74,25.01-14.39,26.74-17.82C461.34,564.27,461.2,554.7,456.92,550.81z"/>
		<g>
			<path class="st5" d="M456.85,550.89c-4.97-4.97-10.94-8.98-17.49-11.27c-1.61-0.64-3.31-0.99-4.96-1.47l-2.54-0.45
				c-0.42-0.07-0.84-0.18-1.27-0.22l-1.28-0.11c-3.41-0.43-6.84-0.13-10.25,0.26l-2.53,0.52c-0.84,0.2-1.71,0.28-2.52,0.59
				l-2.47,0.8l-1.24,0.4c-0.42,0.13-0.76,0.32-1.14,0.48c-1.44,0.77-2.64,2-3.25,3.57c-0.65,1.54-0.78,3.3-0.64,5
				c0.34,3.43,1.8,6.73,3.82,9.51c1.01,1.4,2.23,2.64,3.61,3.63c1.37,1,2.93,1.71,4.54,1.9c0.32,0.04,0.56,0.31,0.55,0.62l0,0.05
				c-0.03,3.31,0.38,6.7,1.24,9.87c0.44,1.59,1.04,3.12,1.84,4.5c0.79,1.39,1.77,2.65,3,3.57c1.22,0.93,2.66,1.52,4.18,1.78
				c1.53,0.26,3.12,0.18,4.7-0.08c3.27-0.57,6.47-1.49,9.5-2.79c6.07-2.59,11.47-6.78,15.46-12.12c0.5-0.66,0.95-1.37,1.35-2.07
				c0.37-0.67,0.59-1.47,0.79-2.26c0.34-1.62,0.45-3.3,0.4-4.98c-0.05-1.68-0.35-3.36-0.86-4.96
				C458.88,553.58,458.07,552.06,456.85,550.89z M457,550.73c1.28,1.17,2.13,2.73,2.72,4.34c0.61,1.61,0.94,3.31,1.15,5.03
				c0.19,1.72,0.22,3.46-0.01,5.2c-0.15,0.87-0.31,1.75-0.69,2.62c-0.38,0.81-0.78,1.58-1.25,2.32c-3.62,5.99-9.3,10.64-15.71,13.47
				c-3.21,1.41-6.62,2.37-10.07,2.93c-1.78,0.25-3.63,0.31-5.47-0.04c-1.83-0.34-3.61-1.13-5.08-2.29
				c-2.96-2.39-4.47-5.89-5.28-9.27c-0.82-3.43-1.02-6.91-0.79-10.4l0.55,0.68c-1.88-0.34-3.57-1.22-4.98-2.37
				c-1.43-1.13-2.61-2.52-3.65-3.97c-2.06-2.93-3.42-6.34-3.87-9.9c-0.15-1.78-0.13-3.65,0.53-5.39c0.59-1.76,1.86-3.3,3.48-4.28
				c0.41-0.21,0.83-0.47,1.25-0.63l1.25-0.49l2.5-0.97c0.82-0.37,1.71-0.51,2.57-0.77l2.61-0.69c3.55-0.55,7.18-0.94,10.77-0.42
				c1.81,0.11,3.56,0.62,5.31,1c1.71,0.56,3.43,1.08,5.05,1.88C446.47,541.21,451.99,545.82,457,550.73z"/>
		</g>
		<g>
			<path class="st5" d="M446.97,565.88c-2.37,2-5.18,3.48-8.2,4.41c-1.51,0.48-3.1,0.75-4.72,0.85c-1.62,0.07-3.27-0.11-4.87-0.55
				c-1.58-0.48-3.09-1.25-4.4-2.25c-1.3-1.01-2.4-2.25-3.26-3.61c-1.74-2.7-2.71-5.75-3.08-8.82c1.25,2.82,2.64,5.53,4.47,7.81
				c1.81,2.28,4.18,3.99,6.88,4.75c2.69,0.82,5.66,0.7,8.56,0.16C441.26,568.06,444.14,567.09,446.97,565.88z"/>
		</g>
		<path class="st5" d="M418.45,555.91c0,0-4.4-3.71-5.17-9.96c-0.76-6.2,10.81-5.34,16.09-1.8
			C435.26,548.09,431.22,551.52,418.45,555.91z"/>
		<g>
			<path class="st5" d="M421.34,562.91c0.13,0.52-0.07,1.03-0.36,1.42c-0.29,0.4-0.71,0.69-1.16,0.86
				c-0.45,0.17-0.93,0.21-1.39,0.13c-0.46-0.08-0.89-0.27-1.26-0.63c0.43-0.32,0.79-0.49,1.14-0.65c0.34-0.17,0.65-0.28,0.95-0.39
				c0.3-0.11,0.59-0.21,0.93-0.31C420.5,563.21,420.86,563.11,421.34,562.91z"/>
		</g>
		<path class="st3" d="M468.1,551.94c0,0-13.41,0.58-16.42-18.57c-2.85-18.11,12.8-30.13,22.01-28.29
			c8.86,1.77,14.55,11.25,12.25,24.49C482.84,547.41,468.1,551.94,468.1,551.94z"/>
		<g>
			<path class="st5" d="M468.11,552.03c-5.44-0.11-10.55-3.36-13.42-8.04c-1.48-2.31-2.52-4.9-3.15-7.55
				c-0.65-2.64-1.02-5.39-0.89-8.14c0.26-5.5,2.41-10.81,5.81-15c3.39-4.16,7.94-7.61,13.39-8.66c1.35-0.24,2.77-0.27,4.16,0
				c1.36,0.26,2.7,0.69,3.94,1.32c2.49,1.27,4.61,3.26,6.09,5.63c3.01,4.77,3.71,10.59,3.07,16c-0.33,2.72-0.96,5.41-1.95,7.97
				c-0.98,2.56-2.36,4.98-4.06,7.11c-1.7,2.13-3.68,4.03-5.88,5.59C473.01,549.79,470.68,551.15,468.11,552.03z M468.08,551.86
				c4.99-1.83,9.24-5.5,12.14-9.84c2.89-4.38,4.59-9.44,5.14-14.63c0.29-2.59,0.28-5.21-0.1-7.76c-0.39-2.55-1.19-5.04-2.52-7.23
				c-1.32-2.19-3.13-4.08-5.38-5.33c-2.23-1.24-4.81-2-7.39-1.61c-2.59,0.32-5.08,1.38-7.28,2.82c-2.23,1.42-4.18,3.28-5.78,5.38
				c-3.21,4.23-4.85,9.49-4.87,14.69c-0.03,2.61,0.35,5.2,0.91,7.76c0.58,2.55,1.4,5.05,2.62,7.36c1.22,2.31,2.92,4.38,5.09,5.9
				C462.81,550.89,465.45,551.82,468.08,551.86z"/>
		</g>
		<path class="st4" d="M488.78,541.07c0,0-39.46-2.02-37.2,20.55c1.02,10.13,15.24,16.78,15.24,16.78"/>
		<g>
			<path class="st5" d="M488.78,541.07c-5.97,0.14-11.92,0.79-17.69,2.08c-2.87,0.69-5.7,1.53-8.36,2.74
				c-2.63,1.22-5.13,2.78-7.02,4.89c-1.88,2.1-3.13,4.75-3.35,7.59l-0.09,1.06c-0.03,0.35,0.01,0.71,0.02,1.07l0.04,1.07l0.18,1.04
				c0.22,1.39,0.8,2.71,1.42,3.99c1.41,2.51,3.42,4.71,5.63,6.65c2.21,1.97,4.69,3.65,7.27,5.15c-1.38-0.58-2.72-1.26-4.01-2.03
				c-1.3-0.75-2.56-1.59-3.77-2.49c-2.39-1.84-4.62-3.99-6.24-6.64c-0.75-1.35-1.44-2.79-1.73-4.35l-0.23-1.17l-0.07-1.16
				c-0.01-0.39-0.06-0.78-0.05-1.17l0.07-1.17c0.19-3.14,1.59-6.19,3.68-8.54c2.13-2.33,4.83-3.98,7.62-5.21
				c2.82-1.19,5.76-2.02,8.73-2.57C476.76,540.79,482.81,540.58,488.78,541.07z"/>
		</g>
		<g>
			<path class="st5" d="M431.13,577.95c-0.85,0.27-1.8,0.23-2.67-0.01c-0.89-0.23-1.71-0.7-2.42-1.29
				c-0.68-0.63-1.26-1.35-1.64-2.17c-0.22-0.4-0.33-0.84-0.48-1.25c-0.1-0.44-0.18-0.87-0.22-1.31c0.27,0.36,0.49,0.73,0.72,1.09
				c0.26,0.34,0.47,0.7,0.73,1.03c0.49,0.66,1.04,1.26,1.63,1.79C427.96,576.85,429.4,577.58,431.13,577.95z"/>
		</g>
		<path class="st5" d="M473.69,505.09c4.73,0.95,8.55,4.11,10.74,8.85c0.76,6.05-3.05,11.61-8.7,12.51
			c-5.78,0.92-11.26-3.37-12.25-9.59c-0.76-4.75,1.34-9.22,4.95-11.49C470.28,504.9,472.08,504.77,473.69,505.09z"/>
		<path class="st3" d="M471.56,513.29c0.31,1.95,2.14,3.28,4.09,2.97c1.95-0.31,3.28-2.14,2.97-4.09c-0.31-1.95-2.14-3.28-4.09-2.97
			C472.58,509.51,471.25,511.34,471.56,513.29z"/>
		<path class="st3" d="M409.52,509.97c0.29,1.83,2.01,3.08,3.84,2.79c1.83-0.29,3.08-2.01,2.79-3.84c-0.29-1.83-2.01-3.08-3.84-2.79
			C410.48,506.42,409.23,508.14,409.52,509.97z"/>
		<g>
			<path class="st5" d="M442.89,553.55c2.59-0.98,5.33-1.54,8.07-1.93c2.74-0.39,5.52-0.56,8.29-0.56c2.77,0.05,5.54,0.18,8.28,0.6
				c2.74,0.36,5.45,0.98,8.09,1.79c-2.77-0.14-5.49-0.39-8.21-0.51l-2.04-0.1l-2.04-0.06c-1.36-0.06-2.72-0.06-4.08-0.07
				c-2.72-0.03-5.44,0.07-8.16,0.19C448.36,553.04,445.64,553.24,442.89,553.55z"/>
		</g>
		<g>
			<path class="st5" d="M441.42,558.89c2.22-0.7,4.56-0.97,6.88-1.07c2.33-0.1,4.66,0.03,6.97,0.32c2.3,0.35,4.6,0.77,6.82,1.48
				c2.23,0.65,4.39,1.54,6.45,2.61c-2.29-0.42-4.51-0.95-6.75-1.36c-0.56-0.1-1.12-0.21-1.68-0.32l-1.68-0.27
				c-1.12-0.21-2.24-0.35-3.37-0.5c-2.25-0.31-4.51-0.51-6.77-0.67C446.02,558.96,443.74,558.87,441.42,558.89z"/>
		</g>
		<g>
			<path class="st5" d="M405.84,545.63c-3.64-0.79-7.12-1.79-10.65-2.55c-1.76-0.42-3.52-0.73-5.29-0.96
				c-1.77-0.2-3.56-0.34-5.39,0.03c1.6-1.02,3.59-1.28,5.45-1.31c1.89-0.03,3.77,0.23,5.59,0.63c1.82,0.43,3.61,0.95,5.32,1.65
				C402.6,543.81,404.28,544.6,405.84,545.63z"/>
		</g>
		<g>
			<path class="st5" d="M405.31,548.3c-3.81,0.8-7.6,1.24-11.38,1.76c-1.89,0.23-3.77,0.5-5.65,0.77c-1.88,0.3-3.75,0.58-5.63,1.08
				c1.61-1.13,3.49-1.8,5.36-2.34c1.88-0.54,3.79-0.89,5.71-1.15c1.92-0.23,3.85-0.4,5.79-0.42
				C401.44,547.97,403.38,548.03,405.31,548.3z"/>
		</g>
		<g>
			<path class="st5" d="M449.13,568.16c-1.04-0.65-1.88-1.37-2.78-2c-0.44-0.32-0.88-0.62-1.35-0.88c-0.47-0.25-0.96-0.48-1.55-0.67
				c0.57-0.27,1.24-0.28,1.86-0.13c0.63,0.14,1.18,0.45,1.69,0.79c0.5,0.36,0.94,0.79,1.3,1.28
				C448.66,567.03,448.97,567.56,449.13,568.16z"/>
		</g>
	</g>
	<path class="st5" d="M488.5,485.28c-3.19-5.49-8.97-13.76-15.68-15.6c0,0-2.54-6.17,6.61-5.11c7.29,0.85,10.09,12.69,11.13,20.01
		C490.74,485.79,489.12,486.33,488.5,485.28z"/>
	<path class="st5" d="M407.61,468.57c3.96-3.45,10.7-8.4,16.44-8.05c0,0,3.64-4.16-3.82-5.76c-5.94-1.28-11.29,7.26-14.05,12.72
		C405.72,468.37,406.84,469.23,407.61,468.57z"/>
	<path class="st8" d="M413.33,608.1c0,0-5.71,2.65-8.43-7.15c-2.72-9.8,0.6-15.59,6.79-13.28c8.26,3.08,9.78,2.88,10.2,6.77
		C422.32,598.35,416.24,607.93,413.33,608.1z"/>
	<g>
		<path class="st5" d="M413.35,608.18c-1.14,0.64-2.65,0.69-3.95,0.2c-1.32-0.49-2.38-1.52-3.14-2.64
			c-0.75-1.13-1.35-2.36-1.75-3.62l-0.31-0.95l-0.23-0.96c-0.17-0.63-0.27-1.29-0.36-1.94c-0.18-1.31-0.19-2.64-0.11-3.96
			c0.13-1.32,0.39-2.63,0.88-3.87c0.48-1.23,1.32-2.39,2.54-3.03c1.22-0.64,2.67-0.72,4-0.44l0.99,0.24l0.92,0.28
			c0.61,0.18,1.23,0.37,1.84,0.57c1.23,0.39,2.46,0.75,3.69,1.22c0.62,0.22,1.24,0.49,1.87,0.82c0.62,0.33,1.29,0.84,1.73,1.54
			c0.45,0.69,0.62,1.45,0.74,2.14c0.12,0.63,0.14,1.53-0.01,2.19c-0.58,2.77-1.9,5.07-3.39,7.23c-0.75,1.08-1.62,2.08-2.55,3.01
			c-0.46,0.47-0.98,0.89-1.54,1.26C414.66,607.84,414.02,608.16,413.35,608.18z M413.31,608.02c1.22-0.38,2.02-1.42,2.81-2.37
			c0.78-0.99,1.45-2.06,2.08-3.15c1.21-2.18,2.36-4.52,2.75-6.81c0.03-0.28,0.09-0.56,0.07-0.81c0.02-0.24-0.02-0.53-0.06-0.83
			c-0.09-0.58-0.23-1.1-0.46-1.5c-0.43-0.8-1.57-1.34-2.72-1.83l-3.56-1.43c-0.6-0.24-1.2-0.48-1.79-0.74l-0.89-0.39l-0.86-0.32
			c-1.15-0.35-2.42-0.46-3.52,0.07c-1.11,0.5-1.89,1.56-2.3,2.73c-0.8,2.38-0.45,4.98,0.09,7.4c0.55,2.44,1.16,4.91,2.37,7.01
			c0.61,1.04,1.4,1.97,2.44,2.53C410.79,608.14,412.06,608.36,413.31,608.02z"/>
	</g>
	<path class="st4" d="M462.51,599.54c0,0,15.17-4.36,16.23,26.85c1.06,31.21-1.94,39.74-1.43,42.92c0.51,3.19,9.35,4.48,9.53,15.32
		c0.17,10.84-8.66,5.89-8.66,5.89s-2.33,6.17-6.66,6c-4.33-0.17-5.35-6.55-5.35-6.55s-1.73,6.99-7.75,6.48
		c-6.02-0.51-2.9-10.64-4.79-18.18c0,0-7.69,3.03-12.26-1.84c-4.56-4.87-0.03-13.16,8.1-8.6c0,0,1.57-5.67-1.13-16.8
		c-2.7-11.14-12.18-29.79-12.18-29.79L462.51,599.54z"/>
	<g>
		<path class="st5" d="M462.46,599.45c2.33-0.61,4.8-0.23,6.9,0.91c2.09,1.13,3.86,2.88,5.08,4.91c2.56,4.04,3.67,8.73,4.39,13.33
			c0.77,4.64,0.81,9.32,0.97,13.94c0.11,4.64,0.16,9.28,0.07,13.93c-0.12,4.64-0.4,9.29-0.9,13.92l-0.85,6.88
			c-0.05,0.56-0.1,1.12-0.07,1.61c0.01,0.12,0.01,0.26,0.03,0.36c0.03,0.09,0.06,0.17,0.08,0.26c0.06,0.18,0.2,0.37,0.33,0.55
			c0.63,0.76,1.59,1.45,2.49,2.18c0.92,0.73,1.81,1.53,2.63,2.41c0.8,0.9,1.52,1.88,2.07,2.96c1.14,2.14,1.56,4.57,1.59,6.92
			c0,0.59-0.05,1.19-0.07,1.78c-0.04,0.59-0.19,1.18-0.29,1.77c-0.35,1.15-0.86,2.34-1.91,3.11c-1.04,0.77-2.38,0.92-3.56,0.76
			c-1.21-0.16-2.33-0.56-3.41-1.11l0.48-0.17c-0.61,1.48-1.39,2.87-2.48,4.07c-1.05,1.19-2.57,2.18-4.29,2.19
			c-0.84-0.01-1.71-0.19-2.42-0.66c-0.72-0.45-1.3-1.06-1.77-1.73c-0.94-1.35-1.49-2.86-1.82-4.46l0.94,0.04
			c-0.36,1.34-0.92,2.56-1.7,3.7c-0.79,1.12-1.83,2.12-3.14,2.71c-1.32,0.6-2.75,0.74-4.21,0.49c-0.73-0.15-1.48-0.53-2.02-1.09
			c-0.55-0.56-0.91-1.24-1.16-1.91c-0.49-1.35-0.63-2.71-0.73-4.03c-0.1-1.32-0.12-2.63-0.15-3.92c-0.07-2.58-0.18-5.14-0.8-7.52
			l1.26,0.65c-1.36,0.51-2.67,0.8-4.06,0.96c-1.38,0.15-2.8,0.12-4.21-0.17c-2.82-0.55-5.49-2.43-6.68-5.26
			c-0.58-1.41-0.71-3.02-0.3-4.52c0.4-1.5,1.35-2.89,2.71-3.75c1.35-0.87,3-1.12,4.48-0.96c1.53,0.12,2.85,0.74,4.13,1.37l-1.69,0.7
			c0.18-0.8,0.3-1.85,0.35-2.8c0.05-0.98,0.07-1.97,0.03-2.97c-0.07-1.99-0.29-3.98-0.62-5.96c-0.64-3.98-1.7-7.84-3.09-11.66
			c-2.76-7.64-6.06-15.15-9.62-22.5l-0.01-0.03c-0.17-0.36-0.07-0.78,0.23-1.02l13.4-10.65C453.51,606.4,457.99,602.9,462.46,599.45
			z M462.57,599.64c-4.3,3.78-8.6,7.51-12.91,11.21l-12.93,11.05l0.22-1.05c1.89,3.67,3.68,7.36,5.4,11.1
			c1.71,3.75,3.36,7.52,4.79,11.41c1.45,3.87,2.64,7.92,3.31,12.04c0.34,2.06,0.57,4.15,0.64,6.26c0.04,1.05,0.02,2.12-0.03,3.18
			c-0.07,1.09-0.16,2.09-0.45,3.29c-0.15,0.61-0.76,0.98-1.37,0.84c-0.1-0.03-0.2-0.06-0.29-0.11l-0.03-0.02
			c-2.05-1.16-4.51-1.67-6.28-0.56c-1.77,1.06-2.49,3.59-1.63,5.61c0.4,1.01,1.12,1.9,2.01,2.63c0.89,0.72,1.98,1.17,3.12,1.44
			c2.29,0.5,4.9,0.2,7.15-0.56l0.06-0.02c0.48-0.16,1.01,0.1,1.17,0.58l0.02,0.09c0.62,2.68,0.66,5.35,0.68,7.95
			c0.01,1.3,0,2.59,0.05,3.86c0.05,1.26,0.15,2.53,0.52,3.63c0.35,1.12,1.04,1.95,2.11,2.2c1.08,0.22,2.36,0.17,3.42-0.29
			c2.18-0.92,3.67-3.23,4.38-5.55l0.01-0.02c0.08-0.26,0.35-0.4,0.6-0.32c0.18,0.06,0.3,0.21,0.33,0.38
			c0.26,1.44,0.75,2.92,1.55,4.15c0.41,0.6,0.92,1.14,1.51,1.52c0.59,0.4,1.3,0.55,2,0.57c1.43,0.01,2.77-0.81,3.76-1.9
			c1.02-1.09,1.81-2.44,2.39-3.81l0-0.01c0.07-0.17,0.27-0.25,0.45-0.18l0.03,0.01c0.97,0.52,2.08,0.88,3.16,1.02
			c1.09,0.14,2.22-0.01,3.06-0.65c0.85-0.63,1.29-1.67,1.59-2.72c0.07-0.55,0.2-1.1,0.23-1.66c0.01-0.56,0.04-1.13,0.03-1.69
			c-0.06-2.26-0.58-4.51-1.69-6.43c-0.54-0.97-1.23-1.84-2-2.64c-0.79-0.79-1.65-1.5-2.57-2.18c-0.91-0.7-1.89-1.32-2.79-2.3
			c-0.21-0.27-0.44-0.55-0.58-0.91c-0.07-0.19-0.13-0.38-0.19-0.57c-0.04-0.18-0.04-0.33-0.06-0.5c-0.06-0.66-0.03-1.26,0.01-1.86
			c0.17-2.36,0.44-4.63,0.62-6.93c0.38-4.59,0.62-9.19,0.74-13.79c0.14-4.61,0.17-9.22,0.12-13.84c-0.07-4.63-0.14-9.23-0.69-13.76
			c-0.54-4.51-1.48-9.09-3.76-13c-1.05-2-2.62-3.7-4.52-4.88C467.15,599.76,464.76,599.26,462.57,599.64z"/>
	</g>
	<g>
		<path class="st8" d="M418.93,593.4c0,0,15.67-8.43,35.99-5.13c20.31,3.3-2.88,30.36-11.09,35.77
			c-6.02,3.96-21.79,13.26-27.64-4.06C410.33,602.66,414.11,595.37,418.93,593.4z"/>
		<g>
			<path class="st5" d="M418.88,593.3c2.74-1.39,5.62-2.48,8.54-3.47c2.92-0.97,5.91-1.81,8.96-2.36c6.09-1.21,12.43-1.2,18.56-0.13
				c1.56,0.34,3.15,0.73,4.58,1.58c1.43,0.81,2.73,2.05,3.38,3.61c0.67,1.55,0.72,3.24,0.49,4.8c-0.21,1.58-0.71,3.07-1.29,4.51
				c-1.15,2.89-2.77,5.54-4.46,8.11c-1.74,2.54-3.57,5.03-5.6,7.37c-2.02,2.34-4.12,4.62-6.58,6.61c-2.53,1.93-5.17,3.51-8.03,4.87
				c-2.85,1.32-5.95,2.35-9.28,2.43c-1.65,0.04-3.36-0.24-4.94-0.9c-1.58-0.65-3-1.66-4.14-2.9c-2.28-2.48-3.54-5.59-4.35-8.57
				c-0.91-2.97-1.55-6.04-1.85-9.15c-0.29-3.1-0.31-6.28,0.49-9.31c0.38-1.51,1-2.98,1.92-4.24
				C416.2,594.92,417.45,593.87,418.88,593.3z M418.98,593.49c-1.4,0.6-2.58,1.62-3.42,2.87c-0.82,1.26-1.38,2.69-1.6,4.18
				c-0.16,0.73-0.19,1.49-0.26,2.24c0.02,0.76-0.05,1.5,0.03,2.26c0.06,0.75,0.09,1.5,0.22,2.25c0.11,0.75,0.2,1.49,0.37,2.23
				c0.58,2.96,1.45,5.85,2.43,8.72c0.48,1.45,0.99,2.81,1.63,4.12c0.66,1.28,1.45,2.48,2.41,3.48c1.89,2.05,4.54,3.13,7.36,3.11
				c2.83,0.01,5.71-0.84,8.43-2.02c2.7-1.2,5.39-2.72,7.81-4.39c2.39-1.76,4.64-3.84,6.76-6.01c4.18-4.38,8.07-9.27,10.29-14.93
				c0.53-1.41,0.94-2.88,1.06-4.35c0.11-1.47-0.06-2.95-0.7-4.18c-0.63-1.24-1.72-2.16-2.99-2.77c-1.26-0.65-2.72-0.89-4.16-1.13
				c-5.98-0.77-12.03-0.9-18.08-0.31c-3.02,0.29-6.04,0.78-9,1.53C424.62,591.12,421.72,592.13,418.98,593.49z"/>
		</g>
		<g>
			<path class="st5" d="M436.26,604.45c-1.39-1.22-2.93-2.25-4.53-3.14c-1.6-0.89-3.29-1.6-5.02-2.14
				c-1.72-0.55-3.51-0.86-5.28-0.96c-1.78-0.15-3.54,0.09-5.26,0.38l-0.08,0.01c-0.6,0.1-1.17-0.3-1.27-0.9
				c-0.1-0.6,0.3-1.17,0.9-1.27c0.03-0.01,0.07-0.01,0.1-0.01c1.94-0.14,3.89-0.2,5.79,0.15c1.9,0.29,3.74,0.82,5.48,1.57
				c1.74,0.73,3.39,1.64,4.93,2.7C433.55,601.91,435,603.1,436.26,604.45z"/>
		</g>
	</g>
	<g>
		<path class="st5" d="M591.08,500.74c-0.14,1.73-0.47,3.45-0.94,5.13c-0.46,1.69-1.05,3.35-1.86,4.93
			c-0.83,1.56-1.79,3.11-3.12,4.37c-1.31,1.26-2.9,2.34-4.71,2.86c-3.49,1.13-7.3,0.94-10.76,0.01c-1.72-0.43-3.44-1.17-4.89-1.52
			c-0.34-0.09-0.65-0.04-0.6-0.05c0.04,0,0.09-0.07,0.07-0.04c-0.01,0.08-0.02,0.2-0.06,0.3c-0.06,0.7-0.05,1.57-0.03,2.42
			c0.07,3.45,0.07,6.99-0.28,10.49c-0.37,3.5-0.98,6.97-1.89,10.35c-1.84,6.77-4.77,13.2-8.57,19.01c3.05-6.23,5.38-12.75,6.9-19.42
			c0.69-3.35,1.25-6.72,1.48-10.13c0.28-3.41,0.26-6.8,0.16-10.27c0-0.88-0.03-1.75,0.08-2.77c0.07-0.32,0.14-0.63,0.27-0.96
			c0.17-0.36,0.53-0.75,0.96-0.95c0.87-0.34,1.46-0.18,1.96-0.09c0.98,0.23,1.78,0.55,2.6,0.83c0.81,0.29,1.61,0.55,2.41,0.79
			c3.18,0.97,6.55,1.17,9.74,0.35c3.1-0.79,5.64-3.23,7.36-6.11C589.16,507.41,590.28,504.1,591.08,500.74z"/>
	</g>
	<g>
		<path class="st5" d="M510.59,432.07c-3.36-3.17-6.81-6.17-10.35-9.06c-3.55-2.86-7.2-5.59-10.99-8.09l-2.87-1.82
			c-0.95-0.63-1.97-1.12-2.94-1.7l-1.47-0.85c-0.5-0.27-1.01-0.51-1.52-0.76c-1.02-0.49-2.02-1.04-3.05-1.51
			c-4.13-1.89-8.44-3.32-12.92-4.47c4.61,0.24,9.22,1.24,13.58,2.88c4.35,1.69,8.5,3.86,12.4,6.39c3.86,2.59,7.53,5.46,10.91,8.64
			C504.75,424.89,507.92,428.29,510.59,432.07z"/>
	</g>
	<g>
		<path class="st5" d="M477.85,444.21c-2.98-0.01-5.93,0.18-8.85,0.59c-1.46,0.19-2.9,0.45-4.32,0.78c-1.42,0.32-2.83,0.69-4.2,1.17
			c-1.36,0.48-2.71,1-3.99,1.65c-1.28,0.64-2.49,1.39-3.64,2.22c-1.13,0.85-2.18,1.8-3.11,2.84c-0.93,1.06-1.7,2.23-2.4,3.44
			l-0.04,0.07c-0.3,0.51-0.96,0.69-1.47,0.39c-0.3-0.17-0.48-0.47-0.53-0.78c-0.21-1.51-0.22-2.88-0.14-4.3
			c0.06-0.7,0.12-1.41,0.22-2.1c0.14-0.69,0.22-1.39,0.41-2.07c0.68-2.73,1.74-5.39,3.35-7.69c0.35-0.61,0.84-1.12,1.25-1.68
			l0.65-0.82c0.23-0.26,0.49-0.5,0.73-0.75c0.49-0.49,0.98-0.99,1.48-1.47l1.62-1.29l0.81-0.63l0.88-0.54l1.75-1.07
			c1.2-0.65,2.47-1.16,3.7-1.73c-1.13,0.76-2.29,1.45-3.39,2.22l-1.58,1.24l-0.79,0.61l-0.72,0.7l-1.44,1.37l-1.28,1.51
			c-0.21,0.25-0.43,0.5-0.63,0.76l-0.55,0.81c-0.35,0.55-0.78,1.05-1.07,1.64c-1.34,2.24-2.23,4.72-2.77,7.25
			c-0.26,1.27-0.41,2.56-0.49,3.85c-0.06,1.27-0.02,2.63,0.16,3.79l-2.04-0.32c0.75-1.38,1.66-2.67,2.7-3.84
			c1.06-1.15,2.24-2.2,3.5-3.11c2.57-1.76,5.41-3.03,8.35-3.84c2.93-0.83,5.94-1.23,8.94-1.38
			C471.91,443.58,474.91,443.69,477.85,444.21z"/>
	</g>
	<g>
		<path class="st5" d="M533.03,446.25c2.92,1.88,5.46,4.31,7.74,6.94c0.56,0.67,1.13,1.33,1.65,2.03l1.55,2.11
			c0.95,1.46,1.89,2.94,2.71,4.49c0.42,0.77,0.82,1.55,1.16,2.35c0.35,0.8,0.75,1.58,1.06,2.4c0.57,1.65,1.25,3.27,1.63,4.98
			c0.97,3.35,1.34,6.86,1.38,10.3c-0.95-3.34-1.77-6.63-3.02-9.78c-1.16-3.17-2.55-6.25-4.16-9.21c-1.55-2.99-3.36-5.84-5.32-8.61
			C537.46,451.49,535.35,448.82,533.03,446.25z"/>
	</g>
	<g>
		<path class="st5" d="M408.89,382.55c3.77,0.72,7.36,2.47,10.45,4.82c3.12,2.34,5.75,5.29,7.97,8.47c2.19,3.2,3.99,6.65,5.4,10.22
			c1.42,3.57,2.49,7.27,3.14,11.04c-1.52-3.51-3.03-6.98-4.71-10.34c-1.69-3.35-3.51-6.63-5.64-9.67c-2.1-3.07-4.5-5.91-7.24-8.4
			C415.5,386.22,412.37,384.15,408.89,382.55z"/>
	</g>
	<g>
		<path class="st5" d="M465.62,678.46c0.66,1.84,1.2,3.74,1.54,5.7c0.17,0.98,0.29,1.98,0.29,3.01c-0.01,1.02-0.09,2.09-0.52,3.16
			c-0.17,0.42-0.65,0.63-1.08,0.46c-0.43-0.17-0.63-0.65-0.46-1.08c0.01-0.04,0.04-0.08,0.06-0.11c0.41-0.7,0.64-1.6,0.77-2.52
			c0.13-0.92,0.16-1.88,0.13-2.84C466.28,682.32,466.02,680.38,465.62,678.46z"/>
	</g>
	<g>
		<path class="st5" d="M475.7,678.32c0.7,0.8,1.2,1.7,1.62,2.64c0.42,0.94,0.73,1.93,0.93,2.94c0.19,1.02,0.29,2.06,0.22,3.1
			c-0.08,1.04-0.3,2.1-0.81,3.03l-0.48-2.96l-0.55-2.85C476.27,682.31,475.86,680.42,475.7,678.32z"/>
	</g>
	<g>
		<path class="st5" d="M396.11,689.52c1.14-1.44,1.58-3.06,1.54-4.72c0.02-0.83-0.18-1.66-0.32-2.51c-0.12-0.42-0.21-0.84-0.32-1.28
			c-0.12-0.43-0.25-0.85-0.34-1.31c0.3,0.34,0.57,0.72,0.84,1.1c0.23,0.4,0.45,0.81,0.64,1.23c0.33,0.87,0.6,1.79,0.6,2.76
			c0.01,0.96-0.17,1.94-0.63,2.8C397.66,688.43,396.97,689.16,396.11,689.52z"/>
	</g>
	<g>
		<path class="st5" d="M399.76,675.04c0.44,1.13,0.42,2.5-0.31,3.69c-0.73,1.22-2.3,1.76-3.45,1.76c-2.48,0.08-5.01-1.02-6.28-3.21
			c-0.66-1.05-1.05-2.24-1.26-3.41c-0.24-1.17-0.37-2.34-0.44-3.49l-0.12-3.4c-0.08-1.11-0.15-2.2-0.66-3.24l0-0.01
			c-0.02-0.04,0-0.09,0.04-0.11c0.03-0.01,0.06-0.01,0.09,0.01c1,0.75,1.5,1.99,1.82,3.13c0.33,1.16,0.47,2.34,0.6,3.48
			c0.19,2.3,0.18,4.54,0.76,6.65c0.31,1.03,1.02,1.99,2.07,2.35c1.03,0.4,2.17,0.11,3.21-0.12c1.11-0.23,1.95-0.45,2.6-1.16
			c0.64-0.69,0.99-1.76,1.18-2.9l0-0.01c0.01-0.05,0.05-0.08,0.1-0.07C399.72,675,399.75,675.02,399.76,675.04z"/>
	</g>
</g>
</svg>
